<?xml version="1.0" standalone="no"?>
<!DOCTYPE svg PUBLIC "-//W3C//DTD SVG 20010904//EN"
 "http://www.w3.org/TR/2001/REC-SVG-20010904/DTD/svg10.dtd">
<svg version="1.0" xmlns="http://www.w3.org/2000/svg"
 width="565.000000pt" height="196.000000pt" viewBox="0 0 565.000000 196.000000"
 preserveAspectRatio="xMidYMid meet">

<g transform="translate(0.000000,196.000000) scale(0.100000,-0.100000)"
fill="#000000" stroke="none">
<path d="M2598 1649 c-17 -9 -18 -46 -18 -542 0 -401 3 -536 12 -545 9 -9 83
-12 271 -12 l259 0 -6 -32 c-3 -18 -8 -57 -12 -86 l-7 -52 -53 0 -54 0 0 -40
0 -40 340 0 340 0 0 40 0 40 -54 0 -54 0 -11 75 c-6 42 -11 80 -11 85 0 6 100
10 258 10 187 0 261 3 270 12 9 9 12 144 12 545 0 516 -1 533 -19 543 -27 14
-1439 13 -1463 -1z m1442 -474 l0 -435 -710 0 -710 0 0 435 0 435 710 0 710 0
0 -435z m0 -530 l0 -55 -710 0 -710 0 0 55 0 55 710 0 710 0 0 -55z m-546
-112 c3 -10 8 -40 11 -68 4 -27 9 -58 12 -67 4 -17 -10 -18 -187 -18 -178 0
-191 1 -186 18 3 9 8 44 12 77 3 33 8 63 11 68 2 4 76 7 163 7 142 0 159 -2
164 -17z"/>
<path d="M3030 1460 c0 -19 7 -20 160 -20 153 0 160 1 160 20 0 19 -7 20 -160
20 -153 0 -160 -1 -160 -20z"/>
<path d="M3430 1460 c0 -18 7 -20 65 -20 58 0 65 2 65 20 0 18 -7 20 -65 20
-58 0 -65 -2 -65 -20z"/>
<path d="M3030 1400 c0 -18 7 -20 65 -20 58 0 65 2 65 20 0 18 -7 20 -65 20
-58 0 -65 -2 -65 -20z"/>
<path d="M3250 1400 c0 -17 7 -20 50 -20 43 0 50 3 50 20 0 17 -7 20 -50 20
-43 0 -50 -3 -50 -20z"/>
<path d="M3070 1340 c0 -18 7 -20 60 -20 53 0 60 2 60 20 0 18 -7 20 -60 20
-53 0 -60 -2 -60 -20z"/>
<path d="M3030 1275 c0 -12 14 -15 65 -15 51 0 65 3 65 15 0 12 -14 15 -65 15
-51 0 -65 -3 -65 -15z"/>
<path d="M3220 1275 c0 -12 14 -15 65 -15 51 0 65 3 65 15 0 12 -14 15 -65 15
-51 0 -65 -3 -65 -15z"/>
<path d="M3370 1275 c0 -12 14 -15 65 -15 51 0 65 3 65 15 0 12 -14 15 -65 15
-51 0 -65 -3 -65 -15z"/>
<path d="M3560 1275 c0 -12 14 -15 65 -15 51 0 65 3 65 15 0 12 -14 15 -65 15
-51 0 -65 -3 -65 -15z"/>
<path d="M3030 1215 c0 -12 17 -15 95 -15 78 0 95 3 95 15 0 12 -17 15 -95 15
-78 0 -95 -3 -95 -15z"/>
<path d="M3310 1215 c0 -10 11 -15 35 -15 24 0 35 5 35 15 0 10 -11 15 -35 15
-24 0 -35 -5 -35 -15z"/>
<path d="M3470 1215 c0 -10 10 -15 30 -15 20 0 30 5 30 15 0 10 -10 15 -30 15
-20 0 -30 -5 -30 -15z"/>
<path d="M2970 1150 c0 -19 7 -20 95 -20 88 0 95 1 95 20 0 19 -7 20 -95 20
-88 0 -95 -1 -95 -20z"/>
<path d="M3280 1150 c0 -16 7 -20 35 -20 28 0 35 4 35 20 0 16 -7 20 -35 20
-28 0 -35 -4 -35 -20z"/>
<path d="M3400 1150 c0 -18 7 -20 65 -20 58 0 65 2 65 20 0 18 -7 20 -65 20
-58 0 -65 -2 -65 -20z"/>
<path d="M3000 1090 c0 -19 7 -20 95 -20 88 0 95 1 95 20 0 19 -7 20 -95 20
-88 0 -95 -1 -95 -20z"/>
<path d="M3250 1090 c0 -16 7 -20 35 -20 28 0 35 4 35 20 0 16 -7 20 -35 20
-28 0 -35 -4 -35 -20z"/>
<path d="M3370 1090 c0 -18 7 -20 80 -20 73 0 80 2 80 20 0 18 -7 20 -80 20
-73 0 -80 -2 -80 -20z"/>
<path d="M3620 1090 c0 -16 7 -20 35 -20 28 0 35 4 35 20 0 16 -7 20 -35 20
-28 0 -35 -4 -35 -20z"/>
<path d="M3060 1030 c0 -16 7 -20 35 -20 28 0 35 4 35 20 0 16 -7 20 -35 20
-28 0 -35 -4 -35 -20z"/>
<path d="M3190 1030 c0 -19 7 -20 95 -20 88 0 95 1 95 20 0 19 -7 20 -95 20
-88 0 -95 -1 -95 -20z"/>
<path d="M3030 970 c0 -18 7 -20 65 -20 58 0 65 2 65 20 0 18 -7 20 -65 20
-58 0 -65 -2 -65 -20z"/>
<path d="M3250 970 c0 -19 7 -20 95 -20 88 0 95 1 95 20 0 19 -7 20 -95 20
-88 0 -95 -1 -95 -20z"/>
<path d="M3150 905 c0 -13 21 -15 130 -15 109 0 130 2 130 15 0 13 -21 15
-130 15 -109 0 -130 -2 -130 -15z"/>
<path d="M154 1231 c-42 -18 -64 -60 -64 -121 0 -54 3 -61 65 -148 54 -75 65
-97 65 -130 0 -23 -6 -45 -15 -52 -25 -20 -45 5 -45 56 0 44 0 44 -36 44 l-36
0 4 -60 c3 -48 10 -66 30 -86 46 -47 135 -28 158 32 6 14 10 48 10 76 0 47 -5
58 -66 140 -61 84 -65 93 -62 136 3 43 5 47 28 47 23 0 25 -4 28 -52 l3 -53
36 0 35 0 -4 60 c-3 48 -10 66 -29 85 -27 28 -74 39 -105 26z"/>
<path d="M1391 1227 c-36 -21 -50 -56 -51 -121 0 -57 2 -62 65 -147 53 -74 65
-96 65 -128 0 -41 -20 -67 -45 -57 -11 4 -15 20 -15 56 l0 50 -35 0 -35 0 0
-55 c0 -46 5 -60 28 -86 51 -57 141 -36 161 38 22 79 16 104 -54 201 -57 80
-65 96 -65 137 0 31 5 47 15 51 26 10 45 -16 45 -62 0 -44 0 -44 35 -44 33 0
35 2 35 33 0 47 -17 102 -39 121 -25 23 -81 29 -110 13z"/>
<path d="M4390 970 l0 -270 30 0 29 0 3 143 3 142 33 3 32 3 0 -145 0 -146 35
0 35 0 0 270 0 270 -35 0 -35 0 0 -90 0 -90 -35 0 -35 0 0 90 0 90 -30 0 -30
0 0 -270z"/>
<path d="M4670 975 l0 -265 35 0 35 0 0 265 0 265 -35 0 -35 0 0 -265z"/>
<path d="M4812 973 l3 -268 85 0 85 0 3 33 3 32 -55 0 -56 0 0 235 0 235 -35
0 -35 0 2 -267z"/>
<path d="M5067 1234 c-4 -4 -7 -124 -7 -266 l0 -258 35 0 35 0 0 135 0 135 55
0 55 0 0 34 0 35 -52 3 -53 3 -3 58 -3 57 56 0 56 0 -3 33 -3 32 -80 3 c-45 1
-84 0 -88 -4z"/>
<path d="M5320 970 l0 -270 85 0 85 0 0 34 0 35 -52 3 -53 3 0 105 0 105 53 3
52 3 0 35 0 34 -56 0 -55 0 3 53 3 52 53 3 52 3 0 35 0 34 -85 0 -85 0 0 -270z"/>
<path d="M340 1195 l0 -35 50 0 50 0 0 -225 0 -225 30 0 30 0 0 225 0 225 45
0 c45 0 45 0 45 35 l0 35 -125 0 -125 0 0 -35z"/>
<path d="M690 1218 c0 -7 -18 -124 -38 -260 l-38 -248 32 0 c36 0 35 -2 52
120 7 54 8 55 43 58 41 3 42 1 54 -93 11 -80 13 -85 46 -85 37 0 37 -11 -14
280 l-42 235 -48 3 c-33 2 -47 -1 -47 -10z m79 -245 c1 -8 -10 -13 -25 -13
l-26 0 7 68 c12 118 18 125 31 37 7 -44 13 -86 13 -92z"/>
<path d="M880 1195 c0 -35 0 -35 45 -35 l45 0 0 -225 0 -225 35 0 35 0 0 225
0 225 45 0 c45 0 45 0 45 35 l0 35 -125 0 -125 0 0 -35z"/>
<path d="M1200 970 l0 -260 30 0 30 0 0 260 0 260 -30 0 -30 0 0 -260z"/>
<path d="M1590 1195 c0 -35 0 -35 45 -35 l45 0 0 -225 0 -225 35 0 35 0 0 225
0 225 45 0 c45 0 45 0 45 35 l0 35 -125 0 -125 0 0 -35z"/>
<path d="M1910 970 l0 -260 30 0 30 0 0 260 0 260 -30 0 -30 0 0 -260z"/>
<path d="M2050 971 l0 -261 33 0 32 0 0 125 c0 200 7 197 66 -32 l24 -93 32 0
c18 0 33 3 33 7 0 4 -20 82 -45 174 -25 92 -45 174 -45 182 0 8 14 44 30 80
17 37 30 69 30 72 0 3 -18 5 -39 5 -38 0 -40 -2 -57 -50 -10 -27 -22 -50 -27
-50 -4 0 -7 21 -5 48 3 47 3 47 -29 50 l-33 3 0 -260z"/>
</g>
</svg>
